<svg width="287" height="185" viewBox="0 0 287 185" fill="none" xmlns="http://www.w3.org/2000/svg">
<mask id="mask0_18_80" style="mask-type:luminance" maskUnits="userSpaceOnUse" x="101" y="0" width="87" height="87">
<path d="M101.214 0.614563H187.214V86.3333H101.214V0.614563Z" fill="white"/>
</mask>
<g mask="url(#mask0_18_80)">
<path d="M150.818 47.3646L186.776 43.3958L150.818 39.4271L162.333 25.0573L147.964 36.5729L143.995 0.614563L140.026 36.5729L125.656 25.0573L137.172 39.4271L101.214 43.3958L137.172 47.3646L125.656 61.7344L140.026 50.2187L143.995 86.1771L147.964 50.2187L162.333 61.7344L150.818 47.3646Z" fill="#E4E2DD"/>
</g>
<path d="M20.5729 122.941C23 122.941 25.25 123.186 27.3229 123.67C29.3906 124.144 31.5417 124.91 33.7813 125.962C34.6563 126.378 35.2188 126.587 35.4688 126.587C35.7448 126.587 36.0573 126.352 36.4063 125.878L36.9688 126.212L33.5521 132.733L32.8646 132.358C32.9479 132.081 32.9896 131.852 32.9896 131.67C32.9896 131.17 32.6823 130.639 32.0729 130.066C31.474 129.483 30.6354 128.962 29.5521 128.503C28.4792 128.035 27.224 127.644 25.7813 127.337C24.3333 127.019 22.7604 126.858 21.0521 126.858C18.8125 126.858 16.75 127.18 14.8646 127.816C12.9896 128.456 11.3542 129.358 9.96875 130.524C8.57812 131.691 7.5 133.108 6.73958 134.774C5.97396 136.441 5.59375 138.285 5.59375 140.295C5.59375 142.352 5.96875 144.222 6.71875 145.899C7.46875 147.581 8.5 149.014 9.82292 150.191C11.1406 151.373 12.6979 152.29 14.4896 152.941C16.2813 153.597 18.2292 153.92 20.3438 153.92C22.1198 153.92 23.8125 153.691 25.4271 153.233C27.0521 152.764 28.474 152.201 29.6979 151.545C30.9323 150.894 31.9167 150.222 32.6563 149.524C33.4063 148.816 33.7813 148.233 33.7813 147.774C33.7813 147.399 33.7188 147.024 33.5938 146.649L33.9688 146.358L38.3646 151.962L37.9896 152.253C37.8333 152.087 37.6615 151.972 37.4688 151.899C37.2865 151.816 37.0729 151.774 36.8229 151.774C36.5417 151.774 36.1771 151.956 35.7188 152.316C35.2708 152.68 34.8021 153.024 34.3021 153.358C33.6198 153.858 32.8281 154.373 31.9271 154.899C31.0208 155.43 29.9896 155.915 28.8229 156.358C27.6563 156.79 26.3281 157.144 24.8438 157.42C23.3698 157.696 21.7031 157.837 19.8438 157.837C17.4688 157.837 15.1406 157.42 12.8646 156.587C10.599 155.743 8.57292 154.561 6.78125 153.045C5 151.519 3.5625 149.686 2.46875 147.545C1.38542 145.394 0.84375 143.014 0.84375 140.399C0.84375 137.774 1.38542 135.399 2.46875 133.274C3.5625 131.149 5.02083 129.316 6.84375 127.774C8.66146 126.233 10.7604 125.045 13.1354 124.212C15.5208 123.368 18 122.941 20.5729 122.941Z" fill="#E4E2DD"/>
<path d="M69.1127 138.628C70.8731 138.628 72.2793 138.149 73.321 137.191C74.3627 136.222 74.8835 134.753 74.8835 132.795C74.8835 131.144 74.2689 129.852 73.0502 128.92C71.8262 127.977 70.2273 127.503 68.2585 127.503H52.6752V138.628H69.1127ZM68.2168 123.399C69.8679 123.399 71.3887 123.618 72.7793 124.045C74.1804 124.462 75.3887 125.081 76.4043 125.899C77.4148 126.722 78.2064 127.733 78.7793 128.941C79.3627 130.139 79.6543 131.498 79.6543 133.024C79.6543 134.389 79.4356 135.628 79.0085 136.753C78.5918 137.878 77.9877 138.837 77.196 139.628C76.4043 140.42 75.4356 141.045 74.3002 141.503C73.1752 141.951 71.9095 142.186 70.5085 142.212L78.9043 155.837C79.1543 156.186 79.3731 156.43 79.571 156.566C79.7793 156.706 80.1804 156.79 80.7793 156.816V157.378H71.946V156.816C72.571 156.79 72.9929 156.722 73.2168 156.608C73.4356 156.498 73.5502 156.305 73.5502 156.024C73.5502 155.748 73.4252 155.41 73.1752 155.003C72.9252 154.602 72.5762 154.024 72.1335 153.274L65.6543 142.733H52.6752V155.649C52.6752 156.123 52.7585 156.436 52.9252 156.587C53.1023 156.743 53.5189 156.816 54.1752 156.816V157.378H46.4252V156.816C47.0762 156.816 47.4877 156.743 47.6543 156.587C47.8314 156.436 47.9252 156.139 47.9252 155.691V125.087C47.9252 124.66 47.8314 124.368 47.6543 124.212C47.4877 124.045 47.0762 123.962 46.4252 123.962V123.399H68.2168Z" fill="#E4E2DD"/>
<path d="M97.5691 143.837H112.215L104.694 127.128L97.5691 143.837ZM109.423 123.399V123.962C109.298 124.035 109.1 124.118 108.84 124.212C108.574 124.295 108.444 124.462 108.444 124.712C108.444 124.868 108.611 125.331 108.944 126.108L122.569 155.566C122.788 156.024 122.975 156.326 123.132 156.462C123.283 156.602 123.673 156.722 124.298 156.816V157.378H116.548V156.816C117.142 156.79 117.444 156.602 117.444 156.253C117.444 156.076 117.392 155.858 117.298 155.608C117.215 155.358 117.111 155.097 116.986 154.816C116.819 154.54 116.496 153.858 116.027 152.774C115.569 151.68 114.887 150.076 113.986 147.962H95.8399L93.0274 154.712C92.8712 155.16 92.7566 155.462 92.6733 155.628C92.6003 155.795 92.5691 155.962 92.5691 156.128C92.5691 156.285 92.6316 156.42 92.7566 156.545C92.8816 156.67 93.0951 156.764 93.4024 156.816V157.378H86.5066V156.816C86.8087 156.816 87.0587 156.79 87.2566 156.733C87.4649 156.665 87.642 156.545 87.7983 156.378C87.9649 156.212 88.1316 155.956 88.2983 155.608C88.4649 155.264 88.6733 154.795 88.9233 154.212L100.923 126.441C101.074 126.066 101.215 125.727 101.34 125.42C101.465 125.102 101.527 124.852 101.527 124.67C101.527 124.519 101.47 124.378 101.361 124.253C101.246 124.128 100.975 124.035 100.548 123.962V123.399H109.423Z" fill="#E4E2DD"/>
<path d="M162.225 129.003H161.684C161.585 128.378 161.439 127.977 161.246 127.795C161.064 127.602 160.736 127.503 160.267 127.503H137.309V138.253H152.809C153.309 138.253 153.632 138.123 153.788 137.858C153.939 137.597 154.048 137.227 154.121 136.753H154.684V144.024H154.121C154.022 143.373 153.882 142.936 153.704 142.712C153.538 142.477 153.236 142.358 152.809 142.358H137.309V155.691C137.309 156.139 137.392 156.436 137.559 156.587C137.736 156.743 138.152 156.816 138.809 156.816V157.378H131.059V156.816C131.71 156.816 132.121 156.743 132.288 156.587C132.465 156.436 132.559 156.139 132.559 155.691V125.045C132.559 124.602 132.465 124.311 132.288 124.17C132.121 124.035 131.746 123.962 131.163 123.962V123.399H160.413C160.913 123.399 161.23 123.264 161.371 122.983C161.507 122.707 161.611 122.352 161.684 121.92H162.225V129.003Z" fill="#E4E2DD"/>
<path d="M167.17 121.92H167.732C167.8 122.352 167.904 122.707 168.045 122.983C168.18 123.264 168.513 123.399 169.045 123.399H198.774C199.232 123.399 199.545 123.305 199.711 123.108C199.888 122.899 200.029 122.503 200.128 121.92H200.691V129.003H200.128C200.055 128.477 199.925 128.097 199.732 127.858C199.55 127.623 199.243 127.503 198.816 127.503H186.316V155.795C186.316 156.227 186.409 156.503 186.607 156.628C186.816 156.753 187.211 156.816 187.795 156.816V157.378H180.045V156.816C180.696 156.816 181.107 156.743 181.274 156.587C181.451 156.436 181.545 156.17 181.545 155.795V127.503H169.086C168.555 127.503 168.222 127.623 168.086 127.858C167.946 128.097 167.826 128.477 167.732 129.003H167.17V121.92Z" fill="#E4E2DD"/>
<path d="M240.426 121.92V129.003H239.864C239.807 128.602 239.708 128.253 239.572 127.962C239.432 127.66 239.098 127.503 238.572 127.503H214.489V138.253H231.426C231.854 138.253 232.156 138.144 232.322 137.92C232.499 137.701 232.619 137.311 232.676 136.753H233.239V144.024H232.676C232.619 143.347 232.489 142.899 232.281 142.691C232.083 142.472 231.786 142.358 231.385 142.358H214.489V153.274H238.468C238.937 153.274 239.265 153.186 239.447 153.003C239.64 152.811 239.781 152.399 239.864 151.774H240.426V158.878H239.864C239.781 158.253 239.64 157.842 239.447 157.649C239.265 157.467 238.937 157.378 238.468 157.378H208.322V156.816C208.916 156.816 209.301 156.748 209.468 156.608C209.635 156.472 209.718 156.201 209.718 155.795V125.045C209.718 124.602 209.635 124.311 209.468 124.17C209.301 124.035 208.916 123.962 208.322 123.962V123.399H238.51C238.979 123.399 239.301 123.305 239.468 123.108C239.645 122.899 239.781 122.503 239.864 121.92H240.426Z" fill="#E4E2DD"/>
<path d="M270.749 153.274C272.426 153.274 273.963 152.993 275.353 152.42C276.739 151.837 277.921 151.003 278.895 149.92C279.88 148.826 280.645 147.477 281.187 145.878C281.728 144.269 281.999 142.441 281.999 140.399C281.999 138.123 281.687 136.17 281.062 134.545C280.447 132.91 279.63 131.566 278.603 130.524C277.572 129.483 276.395 128.722 275.062 128.233C273.739 127.748 272.364 127.503 270.937 127.503H255.77V153.274H270.749ZM270.853 123.399C272.963 123.399 274.978 123.743 276.895 124.42C278.812 125.087 280.499 126.118 281.958 127.503C283.416 128.878 284.583 130.644 285.458 132.795C286.333 134.936 286.77 137.472 286.77 140.399C286.77 143.347 286.333 145.889 285.458 148.024C284.583 150.149 283.416 151.91 281.958 153.295C280.499 154.686 278.812 155.712 276.895 156.378C274.978 157.045 272.989 157.378 270.937 157.378H249.708V156.816C250.234 156.816 250.583 156.748 250.749 156.608C250.926 156.472 251.02 156.186 251.02 155.753V125.045C251.02 124.602 250.926 124.311 250.749 124.17C250.583 124.035 250.234 123.962 249.708 123.962V123.399H270.853Z" fill="#E4E2DD"/>
<path d="M72.5718 183.98V175.396H77.7801V176.417H73.6551V179.125H77.4676V180.105H73.6551V182.98H77.9051V183.98H72.5718Z" fill="#E4E2DD"/>
<path d="M85.2074 183.98L88.2699 179.584L85.3324 175.396H86.6241L88.9574 178.792L89.6866 177.709L91.2907 175.396H92.5616L89.6241 179.584L92.7074 183.98H91.4157L89.6657 181.438L88.9574 180.417L86.4991 183.98H85.2074Z" fill="#E4E2DD"/>
<path d="M100.454 183.98V175.396H103.35C104.001 175.396 104.563 175.521 105.037 175.771C105.522 176.011 105.891 176.344 106.141 176.771C106.402 177.188 106.537 177.698 106.537 178.292C106.537 178.875 106.402 179.386 106.141 179.813C105.891 180.245 105.522 180.579 105.037 180.813C104.563 181.052 104.001 181.167 103.35 181.167H101.537V183.98H100.454ZM101.537 180.167H103.329C104.73 180.167 105.433 179.542 105.433 178.292C105.433 177.058 104.73 176.438 103.329 176.438H101.537V180.167Z" fill="#E4E2DD"/>
<path d="M114.322 183.98V175.396H119.53V176.417H115.405V179.125H119.217V180.105H115.405V182.98H119.655V183.98H114.322Z" fill="#E4E2DD"/>
<path d="M127.749 183.98V175.396H131.02C131.613 175.396 132.129 175.516 132.561 175.75C133.004 175.974 133.353 176.292 133.603 176.709C133.853 177.115 133.978 177.599 133.978 178.167C133.978 178.865 133.796 179.438 133.436 179.896C133.072 180.344 132.582 180.641 131.957 180.792L134.103 183.98H132.811L130.707 180.896H128.832V183.98H127.749ZM128.832 179.875H130.895C131.52 179.875 132.004 179.73 132.353 179.438C132.697 179.136 132.874 178.709 132.874 178.167C132.874 177.615 132.697 177.188 132.353 176.896C132.004 176.594 131.52 176.438 130.895 176.438H128.832V179.875Z" fill="#E4E2DD"/>
<path d="M142.13 183.98V175.396H143.214V183.98H142.13Z" fill="#E4E2DD"/>
<path d="M151.753 183.98V175.396H156.961V176.417H152.836V179.125H156.649V180.105H152.836V182.98H157.086V183.98H151.753Z" fill="#E4E2DD"/>
<path d="M165.18 183.98V175.396H166.201L170.93 182.125V175.396H171.992V183.98H170.992L166.242 177.271V183.98H165.18Z" fill="#E4E2DD"/>
<path d="M184.32 184.146C183.695 184.146 183.117 184.032 182.59 183.813C182.059 183.594 181.601 183.287 181.215 182.896C180.825 182.495 180.518 182.021 180.299 181.48C180.09 180.938 179.986 180.344 179.986 179.688C179.986 179.053 180.09 178.459 180.299 177.917C180.518 177.375 180.825 176.912 181.215 176.521C181.601 176.12 182.059 175.808 182.59 175.584C183.117 175.365 183.695 175.25 184.32 175.25C184.997 175.25 185.622 175.375 186.195 175.625C186.762 175.875 187.247 176.23 187.653 176.688C188.054 177.146 188.351 177.688 188.549 178.313H187.382C187.158 177.704 186.778 177.224 186.236 176.875C185.695 176.516 185.07 176.334 184.361 176.334C183.721 176.334 183.158 176.48 182.674 176.771C182.184 177.053 181.799 177.448 181.507 177.959C181.226 178.459 181.09 179.037 181.09 179.688C181.09 180.355 181.226 180.948 181.507 181.459C181.799 181.959 182.184 182.355 182.674 182.646C183.158 182.928 183.721 183.063 184.361 183.063C185.08 183.063 185.721 182.875 186.278 182.5C186.846 182.125 187.242 181.615 187.465 180.959H188.611C188.445 181.599 188.153 182.157 187.736 182.625C187.32 183.099 186.82 183.474 186.236 183.75C185.653 184.011 185.012 184.146 184.32 184.146Z" fill="#E4E2DD"/>
<path d="M196.561 183.98V175.396H201.77V176.417H197.645V179.125H201.457V180.105H197.645V182.98H201.895V183.98H196.561Z" fill="#E4E2DD"/>
<path d="M212.843 184.146C212.16 184.146 211.561 184.026 211.051 183.792C210.551 183.558 210.16 183.23 209.884 182.813C209.619 182.396 209.478 181.912 209.468 181.355H210.551C210.561 181.896 210.78 182.329 211.197 182.646C211.624 182.954 212.176 183.105 212.843 183.105C213.436 183.105 213.916 182.99 214.28 182.75C214.64 182.516 214.822 182.188 214.822 181.771C214.822 181.37 214.645 181.053 214.301 180.813C213.952 180.563 213.39 180.349 212.613 180.167C211.572 179.917 210.801 179.599 210.301 179.209C209.811 178.808 209.572 178.271 209.572 177.605C209.572 176.886 209.843 176.313 210.384 175.896C210.936 175.469 211.686 175.25 212.634 175.25C213.593 175.25 214.348 175.495 214.905 175.98C215.473 176.454 215.765 177.105 215.78 177.938H214.697C214.697 177.428 214.509 177.021 214.134 176.73C213.759 176.428 213.259 176.271 212.634 176.271C212.02 176.271 211.541 176.396 211.197 176.646C210.848 176.886 210.676 177.204 210.676 177.605C210.676 177.969 210.832 178.266 211.155 178.5C211.473 178.74 212.051 178.959 212.884 179.167C213.978 179.433 214.759 179.771 215.218 180.188C215.686 180.594 215.926 181.105 215.926 181.73C215.926 182.469 215.645 183.058 215.093 183.5C214.535 183.933 213.785 184.146 212.843 184.146Z" fill="#E4E2DD"/>
</svg>
