<svg width="384" height="86" viewBox="0 0 384 86" fill="none" xmlns="http://www.w3.org/2000/svg">
<mask id="mask0_26_241" style="mask-type:luminance" maskUnits="userSpaceOnUse" x="0" y="0" width="87" height="86">
<path d="M0.369751 0H86.3698V85.7188H0.369751V0Z" fill="white"/>
</mask>
<g mask="url(#mask0_26_241)">
<path d="M49.9739 46.75L85.9323 42.7813L49.9739 38.8125L61.4895 24.4427L47.1198 35.9583L43.151 0L39.1823 35.9583L24.8125 24.4427L36.3281 38.8125L0.369751 42.7813L36.3281 46.75L24.8125 61.1198L39.1823 49.6042L43.151 85.5625L47.1198 49.6042L61.4895 61.1198L49.9739 46.75Z" fill="#E4E2DD"/>
</g>
<path d="M117.729 19.0208C120.156 19.0208 122.406 19.2656 124.479 19.75C126.547 20.2239 128.698 20.9896 130.938 22.0416C131.813 22.4583 132.375 22.6666 132.625 22.6666C132.901 22.6666 133.214 22.4323 133.563 21.9583L134.125 22.2916L130.708 28.8125L130.021 28.4375C130.104 28.1614 130.146 27.9323 130.146 27.75C130.146 27.25 129.839 26.7187 129.229 26.1458C128.63 25.5625 127.792 25.0416 126.708 24.5833C125.635 24.1146 124.38 23.7239 122.938 23.4166C121.49 23.0989 119.917 22.9375 118.208 22.9375C115.969 22.9375 113.906 23.2604 112.021 23.8958C110.146 24.5364 108.51 25.4375 107.125 26.6041C105.734 27.7708 104.656 29.1875 103.896 30.8541C103.13 32.5208 102.75 34.3646 102.75 36.375C102.75 38.4323 103.125 40.3021 103.875 41.9791C104.625 43.6614 105.656 45.0937 106.979 46.2708C108.297 47.4531 109.854 48.3698 111.646 49.0208C113.438 49.6771 115.385 50 117.5 50C119.276 50 120.969 49.7708 122.583 49.3125C124.208 48.8437 125.63 48.2812 126.854 47.625C128.089 46.9739 129.073 46.3021 129.813 45.6041C130.563 44.8958 130.938 44.3125 130.938 43.8541C130.938 43.4791 130.875 43.1041 130.75 42.7291L131.125 42.4375L135.521 48.0416L135.146 48.3333C134.99 48.1666 134.818 48.0521 134.625 47.9791C134.443 47.8958 134.229 47.8541 133.979 47.8541C133.698 47.8541 133.333 48.0364 132.875 48.3958C132.427 48.7604 131.958 49.1041 131.458 49.4375C130.776 49.9375 129.984 50.4531 129.083 50.9791C128.177 51.5104 127.146 51.9948 125.979 52.4375C124.813 52.8698 123.484 53.2239 122 53.5C120.526 53.776 118.859 53.9166 117 53.9166C114.625 53.9166 112.297 53.5 110.021 52.6666C107.755 51.8229 105.729 50.6406 103.938 49.125C102.156 47.5989 100.719 45.7656 99.625 43.625C98.5417 41.4739 98 39.0937 98 36.4791C98 33.8541 98.5417 31.4791 99.625 29.3541C100.719 27.2291 102.177 25.3958 104 23.8541C105.818 22.3125 107.917 21.125 110.292 20.2916C112.677 19.4479 115.156 19.0208 117.729 19.0208Z" fill="#E4E2DD"/>
<path d="M166.269 34.7083C168.029 34.7083 169.436 34.2291 170.477 33.2708C171.519 32.302 172.04 30.8333 172.04 28.875C172.04 27.2239 171.425 25.9323 170.206 25C168.982 24.0573 167.384 23.5833 165.415 23.5833H149.831V34.7083H166.269ZM165.373 19.4791C167.024 19.4791 168.545 19.6979 169.936 20.125C171.337 20.5416 172.545 21.1614 173.561 21.9791C174.571 22.802 175.363 23.8125 175.936 25.0208C176.519 26.2187 176.811 27.5781 176.811 29.1041C176.811 30.4687 176.592 31.7083 176.165 32.8333C175.748 33.9583 175.144 34.9166 174.352 35.7083C173.561 36.5 172.592 37.125 171.456 37.5833C170.331 38.0312 169.066 38.2656 167.665 38.2916L176.061 51.9166C176.311 52.2656 176.529 52.5104 176.727 52.6458C176.936 52.7864 177.337 52.8698 177.936 52.8958V53.4583H169.102V52.8958C169.727 52.8698 170.149 52.802 170.373 52.6875C170.592 52.5781 170.706 52.3854 170.706 52.1041C170.706 51.8281 170.581 51.4895 170.331 51.0833C170.081 50.6823 169.732 50.1041 169.29 49.3541L162.811 38.8125H149.831V51.7291C149.831 52.2031 149.915 52.5156 150.081 52.6666C150.259 52.8229 150.675 52.8958 151.331 52.8958V53.4583H143.581V52.8958C144.232 52.8958 144.644 52.8229 144.811 52.6666C144.988 52.5156 145.081 52.2187 145.081 51.7708V21.1666C145.081 20.7395 144.988 20.4479 144.811 20.2916C144.644 20.125 144.232 20.0416 143.581 20.0416V19.4791H165.373Z" fill="#E4E2DD"/>
<path d="M194.725 39.9166H209.371L201.85 23.2083L194.725 39.9166ZM206.58 19.4791V20.0416C206.455 20.1145 206.257 20.1979 205.996 20.2916C205.731 20.375 205.6 20.5416 205.6 20.7916C205.6 20.9479 205.767 21.4114 206.1 22.1875L219.725 51.6458C219.944 52.1041 220.132 52.4062 220.288 52.5416C220.439 52.6823 220.83 52.802 221.455 52.8958V53.4583H213.705V52.8958C214.298 52.8698 214.6 52.6823 214.6 52.3333C214.6 52.1562 214.548 51.9375 214.455 51.6875C214.371 51.4375 214.267 51.177 214.142 50.8958C213.975 50.6198 213.652 49.9375 213.184 48.8541C212.725 47.7604 212.043 46.1562 211.142 44.0416H192.996L190.184 50.7916C190.027 51.2395 189.913 51.5416 189.83 51.7083C189.757 51.875 189.725 52.0416 189.725 52.2083C189.725 52.3645 189.788 52.5 189.913 52.625C190.038 52.75 190.251 52.8437 190.559 52.8958V53.4583H183.663V52.8958C183.965 52.8958 184.215 52.8698 184.413 52.8125C184.621 52.7448 184.798 52.625 184.955 52.4583C185.121 52.2916 185.288 52.0364 185.455 51.6875C185.621 51.3437 185.83 50.875 186.08 50.2916L198.08 22.5208C198.231 22.1458 198.371 21.8073 198.496 21.5C198.621 21.1823 198.684 20.9323 198.684 20.75C198.684 20.5989 198.626 20.4583 198.517 20.3333C198.402 20.2083 198.132 20.1145 197.705 20.0416V19.4791H206.58Z" fill="#E4E2DD"/>
<path d="M259.382 25.0833H258.84C258.741 24.4583 258.595 24.0573 258.402 23.875C258.22 23.6823 257.892 23.5833 257.423 23.5833H234.465V34.3333H249.965C250.465 34.3333 250.788 34.2031 250.944 33.9375C251.095 33.6771 251.204 33.3073 251.277 32.8333H251.84V40.1042H251.277C251.178 39.4531 251.038 39.0156 250.861 38.7917C250.694 38.5573 250.392 38.4375 249.965 38.4375H234.465V51.7708C234.465 52.2188 234.548 52.5156 234.715 52.6667C234.892 52.8229 235.309 52.8958 235.965 52.8958V53.4583H228.215V52.8958C228.866 52.8958 229.277 52.8229 229.444 52.6667C229.621 52.5156 229.715 52.2188 229.715 51.7708V21.125C229.715 20.6823 229.621 20.3906 229.444 20.25C229.277 20.1146 228.902 20.0417 228.319 20.0417V19.4792H257.569C258.069 19.4792 258.387 19.3437 258.527 19.0625C258.663 18.7865 258.767 18.4323 258.84 18H259.382V25.0833Z" fill="#E4E2DD"/>
<path d="M264.326 18H264.888C264.956 18.4323 265.06 18.7865 265.201 19.0625C265.336 19.3437 265.67 19.4792 266.201 19.4792H295.93C296.388 19.4792 296.701 19.3854 296.868 19.1875C297.045 18.9792 297.185 18.5833 297.284 18H297.847V25.0833H297.284C297.211 24.5573 297.081 24.1771 296.888 23.9375C296.706 23.7031 296.399 23.5833 295.972 23.5833H283.472V51.875C283.472 52.3073 283.566 52.5833 283.763 52.7083C283.972 52.8333 284.368 52.8958 284.951 52.8958V53.4583H277.201V52.8958C277.852 52.8958 278.263 52.8229 278.43 52.6667C278.607 52.5156 278.701 52.25 278.701 51.875V23.5833H266.243C265.711 23.5833 265.378 23.7031 265.243 23.9375C265.102 24.1771 264.982 24.5573 264.888 25.0833H264.326V18Z" fill="#E4E2DD"/>
<path d="M337.583 18V25.0833H337.02C336.963 24.6823 336.864 24.3333 336.729 24.0417C336.588 23.7396 336.255 23.5833 335.729 23.5833H311.645V34.3333H328.583C329.01 34.3333 329.312 34.224 329.479 34C329.656 33.7813 329.775 33.3906 329.833 32.8333H330.395V40.1042H329.833C329.775 39.4271 329.645 38.9792 329.437 38.7708C329.239 38.5521 328.942 38.4375 328.541 38.4375H311.645V49.3542H335.624C336.093 49.3542 336.421 49.2656 336.604 49.0833C336.796 48.8906 336.937 48.4792 337.02 47.8542H337.583V54.9583H337.02C336.937 54.3333 336.796 53.9219 336.604 53.7292C336.421 53.5469 336.093 53.4583 335.624 53.4583H305.479V52.8958C306.072 52.8958 306.458 52.8281 306.624 52.6875C306.791 52.5521 306.874 52.2813 306.874 51.875V21.125C306.874 20.6823 306.791 20.3906 306.624 20.25C306.458 20.1146 306.072 20.0417 305.479 20.0417V19.4792H335.666C336.135 19.4792 336.458 19.3854 336.624 19.1875C336.801 18.9792 336.937 18.5833 337.02 18H337.583Z" fill="#E4E2DD"/>
<path d="M367.906 49.3541C369.583 49.3541 371.119 49.0729 372.51 48.5C373.895 47.9166 375.077 47.0833 376.051 46C377.036 44.9062 377.801 43.5573 378.343 41.9583C378.885 40.3489 379.156 38.5208 379.156 36.4791C379.156 34.2031 378.843 32.25 378.218 30.625C377.603 28.9895 376.786 27.6458 375.76 26.6041C374.728 25.5625 373.551 24.802 372.218 24.3125C370.895 23.8281 369.52 23.5833 368.093 23.5833H352.926V49.3541H367.906ZM368.01 19.4791C370.119 19.4791 372.135 19.8229 374.051 20.5C375.968 21.1666 377.656 22.1979 379.114 23.5833C380.572 24.9583 381.739 26.7239 382.614 28.875C383.489 31.0156 383.926 33.552 383.926 36.4791C383.926 39.427 383.489 41.9687 382.614 44.1041C381.739 46.2291 380.572 47.9895 379.114 49.375C377.656 50.7656 375.968 51.7916 374.051 52.4583C372.135 53.125 370.145 53.4583 368.093 53.4583H346.864V52.8958C347.39 52.8958 347.739 52.8281 347.906 52.6875C348.083 52.552 348.176 52.2656 348.176 51.8333V21.125C348.176 20.6823 348.083 20.3906 347.906 20.25C347.739 20.1145 347.39 20.0416 346.864 20.0416V19.4791H368.01Z" fill="#E4E2DD"/>
<path d="M103 75.7291V67.1458H108.208V68.1666H104.083V70.875H107.896V71.8541H104.083V74.7291H108.333V75.7291H103Z" fill="#E4E2DD"/>
<path d="M130 75.7291L133.063 71.3333L130.125 67.1458H131.417L133.75 70.5416L134.479 69.4583L136.083 67.1458H137.354L134.417 71.3333L137.5 75.7291H136.208L134.458 73.1875L133.75 72.1666L131.292 75.7291H130Z" fill="#E4E2DD"/>
<path d="M159 75.7291V67.1458H161.896C162.547 67.1458 163.109 67.2708 163.583 67.5208C164.068 67.7604 164.438 68.0937 164.688 68.5208C164.948 68.9375 165.083 69.4479 165.083 70.0416C165.083 70.625 164.948 71.1354 164.688 71.5625C164.438 71.9948 164.068 72.3281 163.583 72.5625C163.109 72.8021 162.547 72.9166 161.896 72.9166H160.083V75.7291H159ZM160.083 71.9166H161.875C163.276 71.9166 163.979 71.2916 163.979 70.0416C163.979 68.8073 163.276 68.1875 161.875 68.1875H160.083V71.9166Z" fill="#E4E2DD"/>
<path d="M187 75.7291V67.1458H192.208V68.1666H188.083V70.875H191.896V71.8541H188.083V74.7291H192.333V75.7291H187Z" fill="#E4E2DD"/>
<path d="M214 75.7291V67.1458H217.271C217.865 67.1458 218.38 67.2656 218.813 67.5C219.255 67.7239 219.604 68.0416 219.854 68.4583C220.104 68.8646 220.229 69.3489 220.229 69.9166C220.229 70.6146 220.047 71.1875 219.688 71.6458C219.323 72.0937 218.833 72.3906 218.208 72.5416L220.354 75.7291H219.063L216.958 72.6458H215.083V75.7291H214ZM215.083 71.625H217.146C217.771 71.625 218.255 71.4791 218.604 71.1875C218.948 70.8854 219.125 70.4583 219.125 69.9166C219.125 69.3646 218.948 68.9375 218.604 68.6458C218.255 68.3437 217.771 68.1875 217.146 68.1875H215.083V71.625Z" fill="#E4E2DD"/>
<path d="M242 75.7291V67.1458H243.083V75.7291H242Z" fill="#E4E2DD"/>
<path d="M265 75.7291V67.1458H270.208V68.1666H266.083V70.875H269.896V71.8541H266.083V74.7291H270.333V75.7291H265Z" fill="#E4E2DD"/>
<path d="M292 75.7291V67.1458H293.021L297.75 73.875V67.1458H298.813V75.7291H297.813L293.063 69.0208V75.7291H292Z" fill="#E4E2DD"/>
<path d="M324.333 75.8958C323.708 75.8958 323.13 75.7813 322.604 75.5625C322.073 75.3438 321.615 75.0365 321.229 74.6458C320.839 74.2448 320.531 73.7708 320.313 73.2292C320.104 72.6875 320 72.0938 320 71.4375C320 70.8021 320.104 70.2083 320.313 69.6667C320.531 69.125 320.839 68.6615 321.229 68.2708C321.615 67.8698 322.073 67.5573 322.604 67.3333C323.13 67.1146 323.708 67 324.333 67C325.01 67 325.635 67.125 326.208 67.375C326.776 67.625 327.26 67.9792 327.667 68.4375C328.068 68.8958 328.365 69.4375 328.563 70.0625H327.396C327.172 69.4531 326.792 68.974 326.25 68.625C325.708 68.2656 325.083 68.0833 324.375 68.0833C323.734 68.0833 323.172 68.2292 322.688 68.5208C322.198 68.8021 321.813 69.1979 321.521 69.7083C321.24 70.2083 321.104 70.7865 321.104 71.4375C321.104 72.1042 321.24 72.6979 321.521 73.2083C321.813 73.7083 322.198 74.1042 322.688 74.3958C323.172 74.6771 323.734 74.8125 324.375 74.8125C325.094 74.8125 325.734 74.625 326.292 74.25C326.859 73.875 327.255 73.3646 327.479 72.7083H328.625C328.458 73.349 328.167 73.9062 327.75 74.375C327.333 74.849 326.833 75.224 326.25 75.5C325.667 75.7604 325.026 75.8958 324.333 75.8958Z" fill="#E4E2DD"/>
<path d="M350 75.7291V67.1458H355.208V68.1666H351.083V70.875H354.896V71.8541H351.083V74.7291H355.333V75.7291H350Z" fill="#E4E2DD"/>
<path d="M380.375 75.8958C379.693 75.8958 379.094 75.776 378.583 75.5417C378.083 75.3073 377.693 74.9792 377.417 74.5625C377.151 74.1458 377.01 73.6615 377 73.1042H378.083C378.094 73.6458 378.313 74.0781 378.729 74.3958C379.156 74.7031 379.708 74.8542 380.375 74.8542C380.969 74.8542 381.448 74.7396 381.813 74.5C382.172 74.2656 382.354 73.9375 382.354 73.5208C382.354 73.1198 382.177 72.8021 381.833 72.5625C381.484 72.3125 380.922 72.099 380.146 71.9167C379.104 71.6667 378.333 71.349 377.833 70.9583C377.344 70.5573 377.104 70.0208 377.104 69.3542C377.104 68.6354 377.375 68.0625 377.917 67.6458C378.469 67.2188 379.219 67 380.167 67C381.125 67 381.88 67.2448 382.438 67.7292C383.005 68.2031 383.297 68.8542 383.313 69.6875H382.229C382.229 69.1771 382.042 68.7708 381.667 68.4792C381.292 68.1771 380.792 68.0208 380.167 68.0208C379.552 68.0208 379.073 68.1458 378.729 68.3958C378.38 68.6354 378.208 68.9531 378.208 69.3542C378.208 69.7188 378.365 70.0156 378.688 70.25C379.005 70.4896 379.583 70.7083 380.417 70.9167C381.51 71.1823 382.292 71.5208 382.75 71.9375C383.219 72.3438 383.458 72.8542 383.458 73.4792C383.458 74.2188 383.177 74.8073 382.625 75.25C382.068 75.6823 381.318 75.8958 380.375 75.8958Z" fill="#E4E2DD"/>
</svg>
